<?xml version="1.0" encoding="utf-8" standalone="no"?>
<!DOCTYPE svg PUBLIC "-//W3C//DTD SVG 1.1//EN"
  "http://www.w3.org/Graphics/SVG/1.1/DTD/svg11.dtd">
<svg xmlns:xlink="http://www.w3.org/1999/xlink" width="216pt" height="172.8pt" viewBox="0 0 216 172.8" xmlns="http://www.w3.org/2000/svg" version="1.1">
 <metadata>
  <rdf:RDF xmlns:dc="http://purl.org/dc/elements/1.1/" xmlns:cc="http://creativecommons.org/ns#" xmlns:rdf="http://www.w3.org/1999/02/22-rdf-syntax-ns#">
   <cc:Work>
    <dc:type rdf:resource="http://purl.org/dc/dcmitype/StillImage"/>
    <dc:date>2026-08-26T12:56:53.550093</dc:date>
    <dc:format>image/svg+xml</dc:format>
    <dc:creator>
     <cc:Agent>
      <dc:title>Matplotlib v3.10.7+dfsg1, https://matplotlib.org/</dc:title>
     </cc:Agent>
    </dc:creator>
   </cc:Work>
  </rdf:RDF>
 </metadata>
 <defs>
  <style type="text/css">*{stroke-linejoin: round; stroke-linecap: butt}</style>
 </defs>
 <g id="figure_1">
  <g id="patch_1">
   <path d="M 0 172.8 
L 216 172.8 
L 216 0 
L 0 0 
z
" style="fill: #ffffff"/>
  </g>
  <g id="axes_1">
   <g id="patch_2">
    <path d="M 31.033209 144.39976 
L 208.31226 144.39976 
L 208.31226 3.00024 
L 31.033209 3.00024 
z
" style="fill: #ffffff"/>
   </g>
   <g id="matplotlib.axis_1">
    <g id="xtick_1">
     <g id="line2d_1">
      <path d="M 60.579717 144.39976 
L 60.579717 3.00024 
" clip-path="url(#peb6fe1df73)" style="fill: none; stroke: #e3e2d9; stroke-width: 0.6; stroke-linecap: square"/>
     </g>
     <g id="line2d_2">
      <defs>
       <path id="md9c1c88e54" d="M 0 0 
L 0 3.5 
" style="stroke: #21201c; stroke-width: 0.8"/>
      </defs>
      <g>
       <use xlink:href="#md9c1c88e54" x="60.579717" y="144.39976" style="fill: #21201c; stroke: #21201c; stroke-width: 0.8"/>
      </g>
     </g>
     <g id="text_1">
      <text style="font-size: 7.5px; font-family: 'STIXGeneral'; text-anchor: middle; fill: #21201c" x="60.579717" y="156.522026" transform="rotate(-0 60.579717 156.522026)">0.4</text>
     </g>
    </g>
    <g id="xtick_2">
     <g id="line2d_3">
      <path d="M 97.512853 144.39976 
L 97.512853 3.00024 
" clip-path="url(#peb6fe1df73)" style="fill: none; stroke: #e3e2d9; stroke-width: 0.6; stroke-linecap: square"/>
     </g>
     <g id="line2d_4">
      <g>
       <use xlink:href="#md9c1c88e54" x="97.512853" y="144.39976" style="fill: #21201c; stroke: #21201c; stroke-width: 0.8"/>
      </g>
     </g>
     <g id="text_2">
      <text style="font-size: 7.5px; font-family: 'STIXGeneral'; text-anchor: middle; fill: #21201c" x="97.512853" y="156.522026" transform="rotate(-0 97.512853 156.522026)">0.5</text>
     </g>
    </g>
    <g id="xtick_3">
     <g id="line2d_5">
      <path d="M 134.445989 144.39976 
L 134.445989 3.00024 
" clip-path="url(#peb6fe1df73)" style="fill: none; stroke: #e3e2d9; stroke-width: 0.6; stroke-linecap: square"/>
     </g>
     <g id="line2d_6">
      <g>
       <use xlink:href="#md9c1c88e54" x="134.445989" y="144.39976" style="fill: #21201c; stroke: #21201c; stroke-width: 0.8"/>
      </g>
     </g>
     <g id="text_3">
      <text style="font-size: 7.5px; font-family: 'STIXGeneral'; text-anchor: middle; fill: #21201c" x="134.445989" y="156.522026" transform="rotate(-0 134.445989 156.522026)">0.6</text>
     </g>
    </g>
    <g id="xtick_4">
     <g id="line2d_7">
      <path d="M 171.379124 144.39976 
L 171.379124 3.00024 
" clip-path="url(#peb6fe1df73)" style="fill: none; stroke: #e3e2d9; stroke-width: 0.6; stroke-linecap: square"/>
     </g>
     <g id="line2d_8">
      <g>
       <use xlink:href="#md9c1c88e54" x="171.379124" y="144.39976" style="fill: #21201c; stroke: #21201c; stroke-width: 0.8"/>
      </g>
     </g>
     <g id="text_4">
      <text style="font-size: 7.5px; font-family: 'STIXGeneral'; text-anchor: middle; fill: #21201c" x="171.379124" y="156.522026" transform="rotate(-0 171.379124 156.522026)">0.7</text>
     </g>
    </g>
    <g id="xtick_5">
     <g id="line2d_9">
      <path d="M 208.31226 144.39976 
L 208.31226 3.00024 
" clip-path="url(#peb6fe1df73)" style="fill: none; stroke: #e3e2d9; stroke-width: 0.6; stroke-linecap: square"/>
     </g>
     <g id="line2d_10">
      <g>
       <use xlink:href="#md9c1c88e54" x="208.31226" y="144.39976" style="fill: #21201c; stroke: #21201c; stroke-width: 0.8"/>
      </g>
     </g>
     <g id="text_5">
      <text style="font-size: 7.5px; font-family: 'STIXGeneral'; text-anchor: middle; fill: #21201c" x="208.31226" y="156.522026" transform="rotate(-0 208.31226 156.522026)">0.8</text>
     </g>
    </g>
    <g id="text_6">
     <text style="font-size: 8.5px; font-family: 'STIXGeneral'; text-anchor: middle; fill: #21201c" x="119.672734" y="167.954994" transform="rotate(-0 119.672734 167.954994)">reachable recall</text>
    </g>
   </g>
   <g id="matplotlib.axis_2">
    <g id="ytick_1">
     <g id="line2d_11">
      <path d="M 31.033209 144.39976 
L 208.31226 144.39976 
" clip-path="url(#peb6fe1df73)" style="fill: none; stroke: #e3e2d9; stroke-width: 0.6; stroke-linecap: square"/>
     </g>
     <g id="line2d_12">
      <defs>
       <path id="m7cf70d3579" d="M 0 0 
L -3.5 0 
" style="stroke: #21201c; stroke-width: 0.8"/>
      </defs>
      <g>
       <use xlink:href="#m7cf70d3579" x="31.033209" y="144.39976" style="fill: #21201c; stroke: #21201c; stroke-width: 0.8"/>
      </g>
     </g>
     <g id="text_7">
      <text style="font-size: 7.5px; font-family: 'STIXGeneral'; text-anchor: end; fill: #21201c" x="24.033209" y="146.960893" transform="rotate(-0 24.033209 146.960893)">0.1</text>
     </g>
    </g>
    <g id="ytick_2">
     <g id="line2d_13">
      <path d="M 31.033209 112.977644 
L 208.31226 112.977644 
" clip-path="url(#peb6fe1df73)" style="fill: none; stroke: #e3e2d9; stroke-width: 0.6; stroke-linecap: square"/>
     </g>
     <g id="line2d_14">
      <g>
       <use xlink:href="#m7cf70d3579" x="31.033209" y="112.977644" style="fill: #21201c; stroke: #21201c; stroke-width: 0.8"/>
      </g>
     </g>
     <g id="text_8">
      <text style="font-size: 7.5px; font-family: 'STIXGeneral'; text-anchor: end; fill: #21201c" x="24.033209" y="115.538777" transform="rotate(-0 24.033209 115.538777)">0.2</text>
     </g>
    </g>
    <g id="ytick_3">
     <g id="line2d_15">
      <path d="M 31.033209 81.555529 
L 208.31226 81.555529 
" clip-path="url(#peb6fe1df73)" style="fill: none; stroke: #e3e2d9; stroke-width: 0.6; stroke-linecap: square"/>
     </g>
     <g id="line2d_16">
      <g>
       <use xlink:href="#m7cf70d3579" x="31.033209" y="81.555529" style="fill: #21201c; stroke: #21201c; stroke-width: 0.8"/>
      </g>
     </g>
     <g id="text_9">
      <text style="font-size: 7.5px; font-family: 'STIXGeneral'; text-anchor: end; fill: #21201c" x="24.033209" y="84.116662" transform="rotate(-0 24.033209 84.116662)">0.3</text>
     </g>
    </g>
    <g id="ytick_4">
     <g id="line2d_17">
      <path d="M 31.033209 50.133413 
L 208.31226 50.133413 
" clip-path="url(#peb6fe1df73)" style="fill: none; stroke: #e3e2d9; stroke-width: 0.6; stroke-linecap: square"/>
     </g>
     <g id="line2d_18">
      <g>
       <use xlink:href="#m7cf70d3579" x="31.033209" y="50.133413" style="fill: #21201c; stroke: #21201c; stroke-width: 0.8"/>
      </g>
     </g>
     <g id="text_10">
      <text style="font-size: 7.5px; font-family: 'STIXGeneral'; text-anchor: end; fill: #21201c" x="24.033209" y="52.694546" transform="rotate(-0 24.033209 52.694546)">0.4</text>
     </g>
    </g>
    <g id="ytick_5">
     <g id="line2d_19">
      <path d="M 31.033209 18.711298 
L 208.31226 18.711298 
" clip-path="url(#peb6fe1df73)" style="fill: none; stroke: #e3e2d9; stroke-width: 0.6; stroke-linecap: square"/>
     </g>
     <g id="line2d_20">
      <g>
       <use xlink:href="#m7cf70d3579" x="31.033209" y="18.711298" style="fill: #21201c; stroke: #21201c; stroke-width: 0.8"/>
      </g>
     </g>
     <g id="text_11">
      <text style="font-size: 7.5px; font-family: 'STIXGeneral'; text-anchor: end; fill: #21201c" x="24.033209" y="21.272431" transform="rotate(-0 24.033209 21.272431)">0.5</text>
     </g>
    </g>
    <g id="text_12">
     <text style="font-size: 8.5px; font-family: 'STIXGeneral'; text-anchor: middle; fill: #21201c" x="8.805474" y="73.7" transform="rotate(-90 8.805474 73.7)">edge precision</text>
    </g>
   </g>
   <g id="patch_3">
    <path d="M 31.033209 144.39976 
L 31.033209 3.00024 
" style="fill: none; stroke: #6b6a63; stroke-width: 0.8; stroke-linejoin: miter; stroke-linecap: square"/>
   </g>
   <g id="patch_4">
    <path d="M 208.31226 144.39976 
L 208.31226 3.00024 
" style="fill: none; stroke: #6b6a63; stroke-width: 0.8; stroke-linejoin: miter; stroke-linecap: square"/>
   </g>
   <g id="patch_5">
    <path d="M 31.033209 144.39976 
L 208.31226 144.39976 
" style="fill: none; stroke: #6b6a63; stroke-width: 0.8; stroke-linejoin: miter; stroke-linecap: square"/>
   </g>
   <g id="patch_6">
    <path d="M 31.033209 3.00024 
L 208.31226 3.00024 
" style="fill: none; stroke: #6b6a63; stroke-width: 0.8; stroke-linejoin: miter; stroke-linecap: square"/>
   </g>
   <g id="PathCollection_1">
    <defs>
     <path id="m58b29134db" d="M 0 2.54951 
C 0.676138 2.54951 1.324674 2.280877 1.802776 1.802776 
C 2.280877 1.324674 2.54951 0.676138 2.54951 0 
C 2.54951 -0.676138 2.280877 -1.324674 1.802776 -1.802776 
C 1.324674 -2.280877 0.676138 -2.54951 0 -2.54951 
C -0.676138 -2.54951 -1.324674 -2.280877 -1.802776 -1.802776 
C -2.280877 -1.324674 -2.54951 -0.676138 -2.54951 0 
C -2.54951 0.676138 -2.280877 1.324674 -1.802776 1.802776 
C -1.324674 2.280877 -0.676138 2.54951 0 2.54951 
z
" style="stroke: #6b6a63"/>
    </defs>
    <g clip-path="url(#peb6fe1df73)">
     <use xlink:href="#m58b29134db" x="62.679275" y="24.494509" style="fill: #6b6a63; stroke: #6b6a63"/>
     <use xlink:href="#m58b29134db" x="53.135829" y="36.273507" style="fill: #6b6a63; stroke: #6b6a63"/>
     <use xlink:href="#m58b29134db" x="55.412906" y="42.053441" style="fill: #6b6a63; stroke: #6b6a63"/>
    </g>
   </g>
   <g id="PathCollection_2">
    <defs>
     <path id="m3c9fc5fba6" d="M 0 2.54951 
C 0.676138 2.54951 1.324674 2.280877 1.802776 1.802776 
C 2.280877 1.324674 2.54951 0.676138 2.54951 0 
C 2.54951 -0.676138 2.280877 -1.324674 1.802776 -1.802776 
C 1.324674 -2.280877 0.676138 -2.54951 0 -2.54951 
C -0.676138 -2.54951 -1.324674 -2.280877 -1.802776 -1.802776 
C -2.280877 -1.324674 -2.54951 -0.676138 -2.54951 0 
C -2.54951 0.676138 -2.280877 1.324674 -1.802776 1.802776 
C -1.324674 2.280877 -0.676138 2.54951 0 2.54951 
z
" style="stroke: #1baf7a"/>
    </defs>
    <g clip-path="url(#peb6fe1df73)">
     <use xlink:href="#m3c9fc5fba6" x="92.601532" y="37.594781" style="fill: #1baf7a; stroke: #1baf7a"/>
     <use xlink:href="#m3c9fc5fba6" x="70.994283" y="44.02579" style="fill: #1baf7a; stroke: #1baf7a"/>
     <use xlink:href="#m3c9fc5fba6" x="81.454968" y="97.961766" style="fill: #1baf7a; stroke: #1baf7a"/>
    </g>
   </g>
   <g id="PathCollection_3">
    <defs>
     <path id="m7d8f3a6645" d="M 0 2.54951 
C 0.676138 2.54951 1.324674 2.280877 1.802776 1.802776 
C 2.280877 1.324674 2.54951 0.676138 2.54951 0 
C 2.54951 -0.676138 2.280877 -1.324674 1.802776 -1.802776 
C 1.324674 -2.280877 0.676138 -2.54951 0 -2.54951 
C -0.676138 -2.54951 -1.324674 -2.280877 -1.802776 -1.802776 
C -2.280877 -1.324674 -2.54951 -0.676138 -2.54951 0 
C -2.54951 0.676138 -2.280877 1.324674 -1.802776 1.802776 
C -1.324674 2.280877 -0.676138 2.54951 0 2.54951 
z
" style="stroke: #2a78d6"/>
    </defs>
    <g clip-path="url(#peb6fe1df73)">
     <use xlink:href="#m7d8f3a6645" x="180.478593" y="76.760982" style="fill: #2a78d6; stroke: #2a78d6"/>
     <use xlink:href="#m7d8f3a6645" x="174.953299" y="61.370461" style="fill: #2a78d6; stroke: #2a78d6"/>
     <use xlink:href="#m7d8f3a6645" x="183.835862" y="77.055277" style="fill: #2a78d6; stroke: #2a78d6"/>
    </g>
   </g>
   <g id="PathCollection_4">
    <defs>
     <path id="m3fecc2049f" d="M -2.54951 2.54951 
L 2.54951 2.54951 
L 2.54951 -2.54951 
L -2.54951 -2.54951 
z
" style="stroke: #1baf7a"/>
    </defs>
    <g clip-path="url(#peb6fe1df73)">
     <use xlink:href="#m3fecc2049f" x="87.793607" y="55.22527" style="fill: #1baf7a; stroke: #1baf7a"/>
    </g>
   </g>
   <g id="PathCollection_5">
    <defs>
     <path id="ma59997f252" d="M -2.54951 2.54951 
L 2.54951 2.54951 
L 2.54951 -2.54951 
L -2.54951 -2.54951 
z
" style="stroke: #2a78d6"/>
    </defs>
    <g clip-path="url(#peb6fe1df73)">
     <use xlink:href="#ma59997f252" x="184.444607" y="120.408125" style="fill: #2a78d6; stroke: #2a78d6"/>
     <use xlink:href="#ma59997f252" x="183.69017" y="108.960688" style="fill: #2a78d6; stroke: #2a78d6"/>
     <use xlink:href="#ma59997f252" x="168.041144" y="106.547072" style="fill: #2a78d6; stroke: #2a78d6"/>
    </g>
   </g>
   <g id="legend_1">
    <g id="line2d_21">
     <defs>
      <path id="m890dbb2206" d="M 0 3 
C 0.795609 3 1.55874 2.683901 2.12132 2.12132 
C 2.683901 1.55874 3 0.795609 3 0 
C 3 -0.795609 2.683901 -1.55874 2.12132 -2.12132 
C 1.55874 -2.683901 0.795609 -3 0 -3 
C -0.795609 -3 -1.55874 -2.683901 -2.12132 -2.12132 
C -2.683901 -1.55874 -3 -0.795609 -3 0 
C -3 0.795609 -2.683901 1.55874 -2.12132 2.12132 
C -1.55874 2.683901 -0.795609 3 0 3 
z
" style="stroke: #6b6a63"/>
     </defs>
     <g>
      <use xlink:href="#m890dbb2206" x="127.404291" y="11.75024" style="fill: #6b6a63; stroke: #6b6a63"/>
     </g>
    </g>
    <g id="text_13">
     <text style="font-size: 7px; font-family: 'STIXGeneral'; text-anchor: start; fill: #21201c" x="136.504291" y="14.20024" transform="rotate(-0 136.504291 14.20024)">naive (1 call)</text>
    </g>
    <g id="line2d_22">
     <defs>
      <path id="md591ade58a" d="M 0 3 
C 0.795609 3 1.55874 2.683901 2.12132 2.12132 
C 2.683901 1.55874 3 0.795609 3 0 
C 3 -0.795609 2.683901 -1.55874 2.12132 -2.12132 
C 1.55874 -2.683901 0.795609 -3 0 -3 
C -0.795609 -3 -1.55874 -2.683901 -2.12132 -2.12132 
C -2.683901 -1.55874 -3 -0.795609 -3 0 
C -3 0.795609 -2.683901 1.55874 -2.12132 2.12132 
C -1.55874 2.683901 -0.795609 3 0 3 
z
" style="stroke: #1baf7a"/>
     </defs>
     <g>
      <use xlink:href="#md591ade58a" x="127.404291" y="21.669459" style="fill: #1baf7a; stroke: #1baf7a"/>
     </g>
    </g>
    <g id="text_14">
     <text style="font-size: 7px; font-family: 'STIXGeneral'; text-anchor: start; fill: #21201c" x="136.504291" y="24.119459" transform="rotate(-0 136.504291 24.119459)">coupled (1 call)</text>
    </g>
    <g id="line2d_23">
     <defs>
      <path id="mf5499e93b2" d="M 0 3 
C 0.795609 3 1.55874 2.683901 2.12132 2.12132 
C 2.683901 1.55874 3 0.795609 3 0 
C 3 -0.795609 2.683901 -1.55874 2.12132 -2.12132 
C 1.55874 -2.683901 0.795609 -3 0 -3 
C -0.795609 -3 -1.55874 -2.683901 -2.12132 -2.12132 
C -2.683901 -1.55874 -3 -0.795609 -3 0 
C -3 0.795609 -2.683901 1.55874 -2.12132 2.12132 
C -1.55874 2.683901 -0.795609 3 0 3 
z
" style="stroke: #2a78d6"/>
     </defs>
     <g>
      <use xlink:href="#mf5499e93b2" x="127.404291" y="31.588677" style="fill: #2a78d6; stroke: #2a78d6"/>
     </g>
    </g>
    <g id="text_15">
     <text style="font-size: 7px; font-family: 'STIXGeneral'; text-anchor: start; fill: #21201c" x="136.504291" y="34.038677" transform="rotate(-0 136.504291 34.038677)">operator pair (2 passes)</text>
    </g>
    <g id="line2d_24">
     <defs>
      <path id="md8bde9af05" d="M 0 3 
C 0.795609 3 1.55874 2.683901 2.12132 2.12132 
C 2.683901 1.55874 3 0.795609 3 0 
C 3 -0.795609 2.683901 -1.55874 2.12132 -2.12132 
C 1.55874 -2.683901 0.795609 -3 0 -3 
C -0.795609 -3 -1.55874 -2.683901 -2.12132 -2.12132 
C -2.683901 -1.55874 -3 -0.795609 -3 0 
C -3 0.795609 -2.683901 1.55874 -2.12132 2.12132 
C -1.55874 2.683901 -0.795609 3 0 3 
z
" style="stroke: #21201c"/>
     </defs>
     <g>
      <use xlink:href="#md8bde9af05" x="127.404291" y="41.507896" style="fill-opacity: 0; stroke: #21201c"/>
     </g>
    </g>
    <g id="text_16">
     <text style="font-size: 7px; font-family: 'STIXGeneral'; text-anchor: start; fill: #21201c" x="136.504291" y="43.957896" transform="rotate(-0 136.504291 43.957896)">flash</text>
    </g>
    <g id="line2d_25">
     <defs>
      <path id="m6a5c878d15" d="M -3 3 
L 3 3 
L 3 -3 
L -3 -3 
z
" style="stroke: #21201c; stroke-linejoin: miter"/>
     </defs>
     <g>
      <use xlink:href="#m6a5c878d15" x="127.404291" y="51.427115" style="fill-opacity: 0; stroke: #21201c; stroke-linejoin: miter"/>
     </g>
    </g>
    <g id="text_17">
     <text style="font-size: 7px; font-family: 'STIXGeneral'; text-anchor: start; fill: #21201c" x="136.504291" y="53.877115" transform="rotate(-0 136.504291 53.877115)">g31b</text>
    </g>
   </g>
  </g>
 </g>
 <defs>
  <clipPath id="peb6fe1df73">
   <rect x="31.033209" y="3.00024" width="177.279051" height="141.39952"/>
  </clipPath>
 </defs>
</svg>
