<?xml version="1.0" encoding="utf-8" standalone="no"?>
<!DOCTYPE svg PUBLIC "-//W3C//DTD SVG 1.1//EN"
  "http://www.w3.org/Graphics/SVG/1.1/DTD/svg11.dtd">
<svg xmlns:xlink="http://www.w3.org/1999/xlink" width="216pt" height="165.6pt" viewBox="0 0 216 165.6" xmlns="http://www.w3.org/2000/svg" version="1.1">
 <metadata>
  <rdf:RDF xmlns:dc="http://purl.org/dc/elements/1.1/" xmlns:cc="http://creativecommons.org/ns#" xmlns:rdf="http://www.w3.org/1999/02/22-rdf-syntax-ns#">
   <cc:Work>
    <dc:type rdf:resource="http://purl.org/dc/dcmitype/StillImage"/>
    <dc:date>2026-08-26T14:27:19.036391</dc:date>
    <dc:format>image/svg+xml</dc:format>
    <dc:creator>
     <cc:Agent>
      <dc:title>Matplotlib v3.10.7+dfsg1, https://matplotlib.org/</dc:title>
     </cc:Agent>
    </dc:creator>
   </cc:Work>
  </rdf:RDF>
 </metadata>
 <defs>
  <style type="text/css">*{stroke-linejoin: round; stroke-linecap: butt}</style>
 </defs>
 <g id="figure_1">
  <g id="patch_1">
   <path d="M 0 165.6 
L 216 165.6 
L 216 0 
L 0 0 
z
" style="fill: #ffffff"/>
  </g>
  <g id="axes_1">
   <g id="patch_2">
    <path d="M 20.00024 141.068276 
L 212.99976 141.068276 
L 212.99976 3.00024 
L 20.00024 3.00024 
z
" style="fill: #ffffff"/>
   </g>
   <g id="matplotlib.axis_1">
    <g id="xtick_1">
     <g id="line2d_1">
      <path d="M 46.653619 141.068276 
L 46.653619 3.00024 
" clip-path="url(#p91f77bd848)" style="fill: none; stroke: #e3e2d9; stroke-width: 0.5; stroke-linecap: square"/>
     </g>
     <g id="line2d_2">
      <defs>
       <path id="mb6e792cb7c" d="M 0 0 
L 0 3.5 
" style="stroke: #6b6a63; stroke-width: 0.8"/>
      </defs>
      <g>
       <use xlink:href="#mb6e792cb7c" x="46.653619" y="141.068276" style="fill: #6b6a63; stroke: #6b6a63; stroke-width: 0.8"/>
      </g>
     </g>
     <g id="text_1">
      <text style="font-size: 7.5px; font-family: 'STIXGeneral'; fill: #21201c" transform="translate(42.071002 153.190541)">A1</text>
      <text style="font-size: 7.5px; font-family: 'STIXGeneral'; fill: #21201c" transform="translate(26.864752 160.964994)">flash/g-emb2</text>
     </g>
    </g>
    <g id="xtick_2">
     <g id="line2d_3">
      <path d="M 93.217873 141.068276 
L 93.217873 3.00024 
" clip-path="url(#p91f77bd848)" style="fill: none; stroke: #e3e2d9; stroke-width: 0.5; stroke-linecap: square"/>
     </g>
     <g id="line2d_4">
      <g>
       <use xlink:href="#mb6e792cb7c" x="93.217873" y="141.068276" style="fill: #6b6a63; stroke: #6b6a63; stroke-width: 0.8"/>
      </g>
     </g>
     <g id="text_2">
      <text style="font-size: 7.5px; font-family: 'STIXGeneral'; fill: #21201c" transform="translate(88.635256 153.190541)">A2</text>
      <text style="font-size: 7.5px; font-family: 'STIXGeneral'; fill: #21201c" transform="translate(70.931154 160.964994)">flash/e-gemma</text>
     </g>
    </g>
    <g id="xtick_3">
     <g id="line2d_5">
      <path d="M 139.782127 141.068276 
L 139.782127 3.00024 
" clip-path="url(#p91f77bd848)" style="fill: none; stroke: #e3e2d9; stroke-width: 0.5; stroke-linecap: square"/>
     </g>
     <g id="line2d_6">
      <g>
       <use xlink:href="#mb6e792cb7c" x="139.782127" y="141.068276" style="fill: #6b6a63; stroke: #6b6a63; stroke-width: 0.8"/>
      </g>
     </g>
     <g id="text_3">
      <text style="font-size: 7.5px; font-family: 'STIXGeneral'; fill: #21201c" transform="translate(135.40576 153.190541)">B1</text>
      <text style="font-size: 7.5px; font-family: 'STIXGeneral'; fill: #21201c" transform="translate(117.285643 160.964994)">g31b/e-gemma</text>
     </g>
    </g>
    <g id="xtick_4">
     <g id="line2d_7">
      <path d="M 186.346381 141.068276 
L 186.346381 3.00024 
" clip-path="url(#p91f77bd848)" style="fill: none; stroke: #e3e2d9; stroke-width: 0.5; stroke-linecap: square"/>
     </g>
     <g id="line2d_8">
      <g>
       <use xlink:href="#mb6e792cb7c" x="186.346381" y="141.068276" style="fill: #6b6a63; stroke: #6b6a63; stroke-width: 0.8"/>
      </g>
     </g>
     <g id="text_4">
      <text style="font-size: 7.5px; font-family: 'STIXGeneral'; fill: #21201c" transform="translate(181.970014 153.190541)">B2</text>
      <text style="font-size: 7.5px; font-family: 'STIXGeneral'; fill: #21201c" transform="translate(166.347748 160.964994)">g31b/g-emb2</text>
     </g>
    </g>
   </g>
   <g id="matplotlib.axis_2">
    <g id="ytick_1">
     <g id="line2d_9">
      <path d="M 20.00024 141.068276 
L 212.99976 141.068276 
" clip-path="url(#p91f77bd848)" style="fill: none; stroke: #e3e2d9; stroke-width: 0.5; stroke-linecap: square"/>
     </g>
     <g id="line2d_10">
      <defs>
       <path id="m2c6152e4a3" d="M 0 0 
L -3.5 0 
" style="stroke: #6b6a63; stroke-width: 0.8"/>
      </defs>
      <g>
       <use xlink:href="#m2c6152e4a3" x="20.00024" y="141.068276" style="fill: #6b6a63; stroke: #6b6a63; stroke-width: 0.8"/>
      </g>
     </g>
     <g id="text_5">
      <text style="font-size: 8px; font-family: 'STIXGeneral'; text-anchor: end; fill: #21201c" x="13.00024" y="143.800151" transform="rotate(-0 13.00024 143.800151)">0.0</text>
     </g>
    </g>
    <g id="ytick_2">
     <g id="line2d_11">
      <path d="M 20.00024 116.413269 
L 212.99976 116.413269 
" clip-path="url(#p91f77bd848)" style="fill: none; stroke: #e3e2d9; stroke-width: 0.5; stroke-linecap: square"/>
     </g>
     <g id="line2d_12">
      <g>
       <use xlink:href="#m2c6152e4a3" x="20.00024" y="116.413269" style="fill: #6b6a63; stroke: #6b6a63; stroke-width: 0.8"/>
      </g>
     </g>
     <g id="text_6">
      <text style="font-size: 8px; font-family: 'STIXGeneral'; text-anchor: end; fill: #21201c" x="13.00024" y="119.145144" transform="rotate(-0 13.00024 119.145144)">0.2</text>
     </g>
    </g>
    <g id="ytick_3">
     <g id="line2d_13">
      <path d="M 20.00024 91.758263 
L 212.99976 91.758263 
" clip-path="url(#p91f77bd848)" style="fill: none; stroke: #e3e2d9; stroke-width: 0.5; stroke-linecap: square"/>
     </g>
     <g id="line2d_14">
      <g>
       <use xlink:href="#m2c6152e4a3" x="20.00024" y="91.758263" style="fill: #6b6a63; stroke: #6b6a63; stroke-width: 0.8"/>
      </g>
     </g>
     <g id="text_7">
      <text style="font-size: 8px; font-family: 'STIXGeneral'; text-anchor: end; fill: #21201c" x="13.00024" y="94.490138" transform="rotate(-0 13.00024 94.490138)">0.4</text>
     </g>
    </g>
    <g id="ytick_4">
     <g id="line2d_15">
      <path d="M 20.00024 67.103257 
L 212.99976 67.103257 
" clip-path="url(#p91f77bd848)" style="fill: none; stroke: #e3e2d9; stroke-width: 0.5; stroke-linecap: square"/>
     </g>
     <g id="line2d_16">
      <g>
       <use xlink:href="#m2c6152e4a3" x="20.00024" y="67.103257" style="fill: #6b6a63; stroke: #6b6a63; stroke-width: 0.8"/>
      </g>
     </g>
     <g id="text_8">
      <text style="font-size: 8px; font-family: 'STIXGeneral'; text-anchor: end; fill: #21201c" x="13.00024" y="69.835132" transform="rotate(-0 13.00024 69.835132)">0.6</text>
     </g>
    </g>
    <g id="ytick_5">
     <g id="line2d_17">
      <path d="M 20.00024 42.44825 
L 212.99976 42.44825 
" clip-path="url(#p91f77bd848)" style="fill: none; stroke: #e3e2d9; stroke-width: 0.5; stroke-linecap: square"/>
     </g>
     <g id="line2d_18">
      <g>
       <use xlink:href="#m2c6152e4a3" x="20.00024" y="42.44825" style="fill: #6b6a63; stroke: #6b6a63; stroke-width: 0.8"/>
      </g>
     </g>
     <g id="text_9">
      <text style="font-size: 8px; font-family: 'STIXGeneral'; text-anchor: end; fill: #21201c" x="13.00024" y="45.180125" transform="rotate(-0 13.00024 45.180125)">0.8</text>
     </g>
    </g>
    <g id="ytick_6">
     <g id="line2d_19">
      <path d="M 20.00024 17.793244 
L 212.99976 17.793244 
" clip-path="url(#p91f77bd848)" style="fill: none; stroke: #e3e2d9; stroke-width: 0.5; stroke-linecap: square"/>
     </g>
     <g id="line2d_20">
      <g>
       <use xlink:href="#m2c6152e4a3" x="20.00024" y="17.793244" style="fill: #6b6a63; stroke: #6b6a63; stroke-width: 0.8"/>
      </g>
     </g>
     <g id="text_10">
      <text style="font-size: 8px; font-family: 'STIXGeneral'; text-anchor: end; fill: #21201c" x="13.00024" y="20.525119" transform="rotate(-0 13.00024 20.525119)">1.0</text>
     </g>
    </g>
   </g>
   <g id="patch_3">
    <path d="M 28.772945 141.068276 
L 45.908591 141.068276 
L 45.908591 52.76137 
L 28.772945 52.76137 
z
" clip-path="url(#p91f77bd848)" style="fill: url(#he5e809c7a7); stroke: #ffffff; stroke-width: 0.5; stroke-linejoin: miter"/>
   </g>
   <g id="patch_4">
    <path d="M 75.337199 141.068276 
L 92.472845 141.068276 
L 92.472845 51.979756 
L 75.337199 51.979756 
z
" clip-path="url(#p91f77bd848)" style="fill: #2a78d6; stroke: #ffffff; stroke-width: 0.5; stroke-linejoin: miter"/>
   </g>
   <g id="patch_5">
    <path d="M 121.901453 141.068276 
L 139.037099 141.068276 
L 139.037099 52.323752 
L 121.901453 52.323752 
z
" clip-path="url(#p91f77bd848)" style="fill: #eb6834; stroke: #ffffff; stroke-width: 0.5; stroke-linejoin: miter"/>
   </g>
   <g id="patch_6">
    <path d="M 168.465707 141.068276 
L 185.601353 141.068276 
L 185.601353 53.284522 
L 168.465707 53.284522 
z
" clip-path="url(#p91f77bd848)" style="fill: url(#h2acc2677c4); stroke: #ffffff; stroke-width: 0.5; stroke-linejoin: miter"/>
   </g>
   <g id="patch_7">
    <path d="M 47.398647 141.068276 
L 64.534293 141.068276 
L 64.534293 106.383783 
L 47.398647 106.383783 
z
" clip-path="url(#p91f77bd848)" style="fill: url(#hb452c08af8); opacity: 0.55; stroke: #ffffff; stroke-width: 0.5; stroke-linejoin: miter"/>
   </g>
   <g id="patch_8">
    <path d="M 93.962901 141.068276 
L 111.098547 141.068276 
L 111.098547 100.230592 
L 93.962901 100.230592 
z
" clip-path="url(#p91f77bd848)" style="fill: #2a78d6; opacity: 0.55; stroke: #ffffff; stroke-width: 0.5; stroke-linejoin: miter"/>
   </g>
   <g id="patch_9">
    <path d="M 140.527155 141.068276 
L 157.662801 141.068276 
L 157.662801 116.01872 
L 140.527155 116.01872 
z
" clip-path="url(#p91f77bd848)" style="fill: #eb6834; opacity: 0.55; stroke: #ffffff; stroke-width: 0.5; stroke-linejoin: miter"/>
   </g>
   <g id="patch_10">
    <path d="M 187.091409 141.068276 
L 204.227055 141.068276 
L 204.227055 118.096061 
L 187.091409 118.096061 
z
" clip-path="url(#p91f77bd848)" style="fill: url(#h4f9a42c183); opacity: 0.55; stroke: #ffffff; stroke-width: 0.5; stroke-linejoin: miter"/>
   </g>
   <g id="LineCollection_1">
    <path d="M 37.340768 56.652948 
L 37.340768 48.869793 
" clip-path="url(#p91f77bd848)" style="fill: none; stroke: #21201c; stroke-width: 0.8"/>
    <path d="M 83.905022 53.476809 
L 83.905022 50.482703 
" clip-path="url(#p91f77bd848)" style="fill: none; stroke: #21201c; stroke-width: 0.8"/>
    <path d="M 130.469276 55.414693 
L 130.469276 49.232812 
" clip-path="url(#p91f77bd848)" style="fill: none; stroke: #21201c; stroke-width: 0.8"/>
    <path d="M 177.03353 56.193413 
L 177.03353 50.375631 
" clip-path="url(#p91f77bd848)" style="fill: none; stroke: #21201c; stroke-width: 0.8"/>
   </g>
   <g id="line2d_21">
    <defs>
     <path id="m97ad05ed60" d="M 2 0 
L -2 -0 
" style="stroke: #21201c"/>
    </defs>
    <g clip-path="url(#p91f77bd848)">
     <use xlink:href="#m97ad05ed60" x="37.340768" y="56.652948" style="fill: #1f77b4; stroke: #21201c"/>
     <use xlink:href="#m97ad05ed60" x="83.905022" y="53.476809" style="fill: #1f77b4; stroke: #21201c"/>
     <use xlink:href="#m97ad05ed60" x="130.469276" y="55.414693" style="fill: #1f77b4; stroke: #21201c"/>
     <use xlink:href="#m97ad05ed60" x="177.03353" y="56.193413" style="fill: #1f77b4; stroke: #21201c"/>
    </g>
   </g>
   <g id="line2d_22">
    <g clip-path="url(#p91f77bd848)">
     <use xlink:href="#m97ad05ed60" x="37.340768" y="48.869793" style="fill: #1f77b4; stroke: #21201c"/>
     <use xlink:href="#m97ad05ed60" x="83.905022" y="50.482703" style="fill: #1f77b4; stroke: #21201c"/>
     <use xlink:href="#m97ad05ed60" x="130.469276" y="49.232812" style="fill: #1f77b4; stroke: #21201c"/>
     <use xlink:href="#m97ad05ed60" x="177.03353" y="50.375631" style="fill: #1f77b4; stroke: #21201c"/>
    </g>
   </g>
   <g id="LineCollection_2">
    <path d="M 55.96647 111.667694 
L 55.96647 101.099872 
" clip-path="url(#p91f77bd848)" style="fill: none; stroke: #21201c; stroke-width: 0.8"/>
    <path d="M 102.530724 103.750435 
L 102.530724 96.710749 
" clip-path="url(#p91f77bd848)" style="fill: none; stroke: #21201c; stroke-width: 0.8"/>
    <path d="M 149.094978 118.923818 
L 149.094978 113.113622 
" clip-path="url(#p91f77bd848)" style="fill: none; stroke: #21201c; stroke-width: 0.8"/>
    <path d="M 195.659232 122.259598 
L 195.659232 113.932523 
" clip-path="url(#p91f77bd848)" style="fill: none; stroke: #21201c; stroke-width: 0.8"/>
   </g>
   <g id="line2d_23">
    <g clip-path="url(#p91f77bd848)">
     <use xlink:href="#m97ad05ed60" x="55.96647" y="111.667694" style="fill: #1f77b4; stroke: #21201c"/>
     <use xlink:href="#m97ad05ed60" x="102.530724" y="103.750435" style="fill: #1f77b4; stroke: #21201c"/>
     <use xlink:href="#m97ad05ed60" x="149.094978" y="118.923818" style="fill: #1f77b4; stroke: #21201c"/>
     <use xlink:href="#m97ad05ed60" x="195.659232" y="122.259598" style="fill: #1f77b4; stroke: #21201c"/>
    </g>
   </g>
   <g id="line2d_24">
    <g clip-path="url(#p91f77bd848)">
     <use xlink:href="#m97ad05ed60" x="55.96647" y="101.099872" style="fill: #1f77b4; stroke: #21201c"/>
     <use xlink:href="#m97ad05ed60" x="102.530724" y="96.710749" style="fill: #1f77b4; stroke: #21201c"/>
     <use xlink:href="#m97ad05ed60" x="149.094978" y="113.113622" style="fill: #1f77b4; stroke: #21201c"/>
     <use xlink:href="#m97ad05ed60" x="195.659232" y="113.932523" style="fill: #1f77b4; stroke: #21201c"/>
    </g>
   </g>
   <g id="patch_11">
    <path d="M 20.00024 141.068276 
L 20.00024 3.00024 
" style="fill: none; stroke: #6b6a63; stroke-width: 0.8; stroke-linejoin: miter; stroke-linecap: square"/>
   </g>
   <g id="patch_12">
    <path d="M 20.00024 141.068276 
L 212.99976 141.068276 
" style="fill: none; stroke: #6b6a63; stroke-width: 0.8; stroke-linejoin: miter; stroke-linecap: square"/>
   </g>
   <g id="text_11">
    <text style="font-size: 6.8px; font-family: 'STIXGeneral'; text-anchor: middle; fill: #21201c" x="37.340768" y="44.92848" transform="rotate(-0 37.340768 44.92848)">0.716</text>
   </g>
   <g id="text_12">
    <text style="font-size: 6.8px; font-family: 'STIXGeneral'; text-anchor: middle; fill: #21201c" x="83.905022" y="44.146865" transform="rotate(-0 83.905022 44.146865)">0.723</text>
   </g>
   <g id="text_13">
    <text style="font-size: 6.8px; font-family: 'STIXGeneral'; text-anchor: middle; fill: #21201c" x="130.469276" y="44.490862" transform="rotate(-0 130.469276 44.490862)">0.720</text>
   </g>
   <g id="text_14">
    <text style="font-size: 6.8px; font-family: 'STIXGeneral'; text-anchor: middle; fill: #21201c" x="177.03353" y="45.451632" transform="rotate(-0 177.03353 45.451632)">0.712</text>
   </g>
   <g id="text_15">
    <text style="font-size: 6.8px; font-family: 'STIXGeneral'; text-anchor: middle; fill: #21201c" x="55.96647" y="97.158558" transform="rotate(-0 55.96647 97.158558)">0.281</text>
   </g>
   <g id="text_16">
    <text style="font-size: 6.8px; font-family: 'STIXGeneral'; text-anchor: middle; fill: #21201c" x="102.530724" y="91.005368" transform="rotate(-0 102.530724 91.005368)">0.331</text>
   </g>
   <g id="text_17">
    <text style="font-size: 6.8px; font-family: 'STIXGeneral'; text-anchor: middle; fill: #21201c" x="149.094978" y="106.793496" transform="rotate(-0 149.094978 106.793496)">0.203</text>
   </g>
   <g id="text_18">
    <text style="font-size: 6.8px; font-family: 'STIXGeneral'; text-anchor: middle; fill: #21201c" x="195.659232" y="108.870836" transform="rotate(-0 195.659232 108.870836)">0.186</text>
   </g>
   <g id="legend_1">
    <g id="patch_13">
     <path d="M 161.511088 15.00024 
L 176.511088 15.00024 
L 176.511088 9.75024 
L 161.511088 9.75024 
z
" style="fill: #6b6a63"/>
    </g>
    <g id="text_19">
     <text style="font-size: 7.5px; font-family: 'STIXGeneral'; text-anchor: start; fill: #21201c" x="182.511088" y="15.00024" transform="rotate(-0 182.511088 15.00024)">R-reach</text>
    </g>
    <g id="patch_14">
     <path d="M 161.511088 25.627974 
L 176.511088 25.627974 
L 176.511088 20.377974 
L 161.511088 20.377974 
z
" style="fill: #6b6a63; opacity: 0.55"/>
    </g>
    <g id="text_20">
     <text style="font-size: 7.5px; font-family: 'STIXGeneral'; text-anchor: start; fill: #21201c" x="182.511088" y="25.627974" transform="rotate(-0 182.511088 25.627974)">P</text>
    </g>
   </g>
  </g>
 </g>
 <defs>
  <clipPath id="p91f77bd848">
   <rect x="20.00024" y="3.00024" width="192.99952" height="138.068036"/>
  </clipPath>
 </defs>
 <defs>
  <pattern id="he5e809c7a7" patternUnits="userSpaceOnUse" x="0" y="0" width="72" height="72">
   <rect x="0" y="0" width="73" height="73" fill="#2a78d6"/>
   <path d="M -36 36 
L 36 -36 
M -32 40 
L 40 -32 
M -28 44 
L 44 -28 
M -24 48 
L 48 -24 
M -20 52 
L 52 -20 
M -16 56 
L 56 -16 
M -12 60 
L 60 -12 
M -8 64 
L 64 -8 
M -4 68 
L 68 -4 
M 0 72 
L 72 0 
M 4 76 
L 76 4 
M 8 80 
L 80 8 
M 12 84 
L 84 12 
M 16 88 
L 88 16 
M 20 92 
L 92 20 
M 24 96 
L 96 24 
M 28 100 
L 100 28 
M 32 104 
L 104 32 
M 36 108 
L 108 36 
" style="fill: #ffffff; stroke: #ffffff; stroke-width: 1.0; stroke-linecap: butt; stroke-linejoin: miter"/>
  </pattern>
  <pattern id="h2acc2677c4" patternUnits="userSpaceOnUse" x="0" y="0" width="72" height="72">
   <rect x="0" y="0" width="73" height="73" fill="#eb6834"/>
   <path d="M -36 36 
L 36 -36 
M -32 40 
L 40 -32 
M -28 44 
L 44 -28 
M -24 48 
L 48 -24 
M -20 52 
L 52 -20 
M -16 56 
L 56 -16 
M -12 60 
L 60 -12 
M -8 64 
L 64 -8 
M -4 68 
L 68 -4 
M 0 72 
L 72 0 
M 4 76 
L 76 4 
M 8 80 
L 80 8 
M 12 84 
L 84 12 
M 16 88 
L 88 16 
M 20 92 
L 92 20 
M 24 96 
L 96 24 
M 28 100 
L 100 28 
M 32 104 
L 104 32 
M 36 108 
L 108 36 
" style="fill: #ffffff; stroke: #ffffff; stroke-width: 1.0; stroke-linecap: butt; stroke-linejoin: miter"/>
  </pattern>
  <pattern id="hb452c08af8" patternUnits="userSpaceOnUse" x="0" y="0" width="72" height="72">
   <rect x="0" y="0" width="73" height="73" fill="#2a78d6"/>
   <path d="M -36 36 
L 36 -36 
M -32 40 
L 40 -32 
M -28 44 
L 44 -28 
M -24 48 
L 48 -24 
M -20 52 
L 52 -20 
M -16 56 
L 56 -16 
M -12 60 
L 60 -12 
M -8 64 
L 64 -8 
M -4 68 
L 68 -4 
M 0 72 
L 72 0 
M 4 76 
L 76 4 
M 8 80 
L 80 8 
M 12 84 
L 84 12 
M 16 88 
L 88 16 
M 20 92 
L 92 20 
M 24 96 
L 96 24 
M 28 100 
L 100 28 
M 32 104 
L 104 32 
M 36 108 
L 108 36 
" style="fill: #ffffff; stroke: #ffffff; stroke-width: 1.0; stroke-linecap: butt; stroke-linejoin: miter; stroke-opacity: 0.55"/>
  </pattern>
  <pattern id="h4f9a42c183" patternUnits="userSpaceOnUse" x="0" y="0" width="72" height="72">
   <rect x="0" y="0" width="73" height="73" fill="#eb6834"/>
   <path d="M -36 36 
L 36 -36 
M -32 40 
L 40 -32 
M -28 44 
L 44 -28 
M -24 48 
L 48 -24 
M -20 52 
L 52 -20 
M -16 56 
L 56 -16 
M -12 60 
L 60 -12 
M -8 64 
L 64 -8 
M -4 68 
L 68 -4 
M 0 72 
L 72 0 
M 4 76 
L 76 4 
M 8 80 
L 80 8 
M 12 84 
L 84 12 
M 16 88 
L 88 16 
M 20 92 
L 92 20 
M 24 96 
L 96 24 
M 28 100 
L 100 28 
M 32 104 
L 104 32 
M 36 108 
L 108 36 
" style="fill: #ffffff; stroke: #ffffff; stroke-width: 1.0; stroke-linecap: butt; stroke-linejoin: miter; stroke-opacity: 0.55"/>
  </pattern>
 </defs>
</svg>
